<svg width="1194" height="100" viewBox="0 0 1194 100" fill="none" xmlns="http://www.w3.org/2000/svg">
<path d="M71.2589 98H0.034453V88.5819H12.1014V11.7655H0.034453V2.34736H69.9345L72.8776 29.4244L63.4595 30.4545L60.5163 11.7655H22.8439V44.7288H68.0214V54.1469H22.8439V88.5819H61.8408L64.7839 69.8928L74.0549 70.9229L71.2589 98ZM183.819 11.7655H171.899V98H164.982L109.504 22.6552H108.915V88.5819H124.072V98H87.5773V88.5819H98.6141V11.7655H85.9586V2.34736H106.561L161.009 76.0735H161.598V11.7655H147.176V2.34736H183.819V11.7655ZM271.902 90.6421C264.25 96.5284 253.605 99.4716 239.969 99.4716C226.038 99.4716 214.755 94.8606 206.122 85.6387C197.489 76.3187 193.172 64.6933 193.172 50.7623C193.172 41.9328 195.036 33.741 198.764 26.1869C202.492 18.5347 207.741 12.4031 214.51 7.7922C221.279 3.18126 229.324 0.875783 238.644 0.875783C246.591 0.875783 253.213 1.90589 258.51 3.96609C263.906 6.02631 268.566 8.7242 272.49 12.0598L275.139 30.4545L265.868 31.3375L263.219 17.3575C260.08 15.2973 256.695 13.6785 253.066 12.5013C249.436 11.2259 244.923 10.5882 239.527 10.5882C229.03 10.5882 220.544 14.3162 214.069 21.7722C207.692 29.2282 204.503 38.7444 204.503 50.3208C204.503 62.1916 207.79 71.7568 214.363 79.0166C221.034 86.1783 230.06 89.7592 241.44 89.7592C249.779 89.7592 256.794 88.3366 262.484 85.4916L265.28 71.3644L274.403 72.2474L271.902 90.6421ZM383.96 50.1737C383.96 59.1994 381.949 67.4402 377.927 74.8962C373.904 82.3522 368.263 88.3366 361.004 92.8495C353.744 97.2642 345.307 99.4716 335.692 99.4716C321.271 99.4716 309.744 94.6644 301.11 85.0501C292.477 75.3377 288.16 63.7122 288.16 50.1737C288.16 36.4389 292.575 24.8135 301.405 15.2973C310.332 5.68294 321.86 0.875783 335.987 0.875783C350.31 0.875783 361.887 5.68294 370.716 15.2973C379.545 24.9116 383.96 36.537 383.96 50.1737ZM372.335 50.3208C372.335 38.8425 369.048 29.3754 362.475 21.9194C355.902 14.3653 347.073 10.5882 335.987 10.5882C324.607 10.5882 315.728 14.4143 309.351 22.0665C302.974 29.7187 299.786 39.0387 299.786 50.0265C299.786 60.8181 302.974 70.1381 309.351 77.9865C315.728 85.8349 324.705 89.7592 336.281 89.7592C347.563 89.7592 356.393 85.9821 362.769 78.428C369.146 70.7758 372.335 61.4067 372.335 50.3208ZM485.62 50.0265C485.62 64.0556 481.303 75.5829 472.67 84.6086C464.135 93.5362 452.313 98 437.205 98H393.941V88.7291H406.007V11.6183H393.941V2.34736H436.763C452.362 2.34736 464.38 6.8602 472.817 15.8859C481.352 24.8135 485.62 36.1937 485.62 50.0265ZM474.142 50.1737C474.142 38.5973 470.904 29.2773 464.429 22.2137C458.052 15.1501 448.781 11.6183 436.616 11.6183H416.75V88.7291H436.616C448.781 88.7291 458.052 85.2954 464.429 78.428C470.904 71.4625 474.142 62.0444 474.142 50.1737ZM567.198 98H495.974V88.5819H508.041V11.7655H495.974V2.34736H565.874L568.817 29.4244L559.399 30.4545L556.456 11.7655H518.783V44.7288H563.961V54.1469H518.783V88.5819H557.78L560.723 69.8928L569.994 70.9229L567.198 98ZM583.691 59.5918H617.685V68.5684H583.691V59.5918ZM720.44 50.0265C720.44 64.0556 716.124 75.5829 707.49 84.6086C698.955 93.5362 687.133 98 672.025 98H628.761V88.7291H640.828V11.6183H628.761V2.34736H671.584C687.183 2.34736 699.2 6.8602 707.637 15.8859C716.173 24.8135 720.44 36.1937 720.44 50.0265ZM708.962 50.1737C708.962 38.5973 705.724 29.2773 699.249 22.2137C692.873 15.1501 683.602 11.6183 671.437 11.6183H651.57V88.7291H671.437C683.602 88.7291 692.873 85.2954 699.249 78.428C705.724 71.4625 708.962 62.0444 708.962 50.1737ZM802.019 98H730.794V88.5819H742.861V11.7655H730.794V2.34736H800.694L803.637 29.4244L794.219 30.4545L791.276 11.7655H753.604V44.7288H798.781V54.1469H753.604V88.5819H792.6L795.544 69.8928L804.815 70.9229L802.019 98ZM895.742 90.6421C888.09 96.5284 877.445 99.4716 863.809 99.4716C849.878 99.4716 838.596 94.8606 829.962 85.6387C821.329 76.3187 817.013 64.6933 817.013 50.7623C817.013 41.9328 818.877 33.741 822.605 26.1869C826.333 18.5347 831.581 12.4031 838.35 7.7922C845.12 3.18126 853.164 0.875783 862.484 0.875783C870.431 0.875783 877.053 1.90589 882.351 3.96609C887.746 6.02631 892.407 8.7242 896.331 12.0598L898.98 30.4545L889.709 31.3375L887.06 17.3575C883.92 15.2973 880.536 13.6785 876.906 12.5013C873.276 11.2259 868.763 10.5882 863.367 10.5882C852.87 10.5882 844.384 14.3162 837.909 21.7722C831.532 29.2282 828.344 38.7444 828.344 50.3208C828.344 62.1916 831.63 71.7568 838.203 79.0166C844.874 86.1783 853.9 89.7592 865.28 89.7592C873.619 89.7592 880.634 88.3366 886.324 85.4916L889.12 71.3644L898.244 72.2474L895.742 90.6421ZM1007.8 50.1737C1007.8 59.1994 1005.79 67.4402 1001.77 74.8962C997.745 82.3522 992.104 88.3366 984.844 92.8495C977.584 97.2642 969.147 99.4716 959.533 99.4716C945.111 99.4716 933.584 94.6644 924.951 85.0501C916.317 75.3377 912.001 63.7122 912.001 50.1737C912.001 36.4389 916.415 24.8135 925.245 15.2973C934.172 5.68294 945.7 0.875783 959.827 0.875783C974.15 0.875783 985.727 5.68294 994.556 15.2973C1003.39 24.9116 1007.8 36.537 1007.8 50.1737ZM996.175 50.3208C996.175 38.8425 992.888 29.3754 986.315 21.9194C979.742 14.3653 970.913 10.5882 959.827 10.5882C948.447 10.5882 939.568 14.4143 933.191 22.0665C926.815 29.7187 923.626 39.0387 923.626 50.0265C923.626 60.8181 926.815 70.1381 933.191 77.9865C939.568 85.8349 948.545 89.7592 960.121 89.7592C971.403 89.7592 980.233 85.9821 986.61 78.428C992.987 70.7758 996.175 61.4067 996.175 50.3208ZM1109.46 50.0265C1109.46 64.0556 1105.14 75.5829 1096.51 84.6086C1087.98 93.5362 1076.15 98 1061.05 98H1017.78V88.7291H1029.85V11.6183H1017.78V2.34736H1060.6C1076.2 2.34736 1088.22 6.8602 1096.66 15.8859C1105.19 24.8135 1109.46 36.1937 1109.46 50.0265ZM1097.98 50.1737C1097.98 38.5973 1094.74 29.2773 1088.27 22.2137C1081.89 15.1501 1072.62 11.6183 1060.46 11.6183H1040.59V88.7291H1060.46C1072.62 88.7291 1081.89 85.2954 1088.27 78.428C1094.74 71.4625 1097.98 62.0444 1097.98 50.1737ZM1191.04 98H1119.81V88.5819H1131.88V11.7655H1119.81V2.34736H1189.71L1192.66 29.4244L1183.24 30.4545L1180.3 11.7655H1142.62V44.7288H1187.8V54.1469H1142.62V88.5819H1181.62L1184.56 69.8928L1193.83 70.9229L1191.04 98Z" fill="#00CC00"/>
</svg>
